<?xml version="1.0" standalone="no"?>
<!DOCTYPE svg PUBLIC "-//W3C//DTD SVG 20010904//EN"
 "http://www.w3.org/TR/2001/REC-SVG-20010904/DTD/svg10.dtd">
<svg version="1.0" xmlns="http://www.w3.org/2000/svg"
 width="2500.000000pt" height="2500.000000pt" viewBox="0 0 2500.000000 2500.000000"
 preserveAspectRatio="xMidYMid meet">

<g transform="translate(0.000000,2500.000000) scale(0.100000,-0.100000)"
fill="#000000" stroke="none">
<path d="M5240 21234 c-14 -2 -65 -12 -115 -20 -398 -70 -774 -317 -1006 -662
-120 -180 -191 -347 -236 -560 -23 -110 -27 -152 -27 -307 -1 -129 4 -205 16
-270 51 -271 158 -509 319 -709 38 -46 580 -601 1206 -1233 2720 -2745 4879
-4928 4890 -4943 10 -15 -9 -37 -140 -166 -84 -83 -636 -627 -1227 -1210 -591
-582 -1343 -1322 -1670 -1644 -581 -572 -1336 -1315 -2508 -2470 -605 -597
-680 -678 -781 -855 -211 -368 -258 -840 -125 -1250 221 -682 892 -1132 1600
-1074 332 27 625 144 879 352 64 53 471 451 2100 2057 1729 1704 2399 2364
2970 2926 303 297 677 666 833 819 l283 279 263 -265 c144 -145 1108 -1119
2142 -2164 3287 -3323 3676 -3714 3753 -3773 272 -210 558 -314 902 -329 166
-7 293 6 439 44 307 79 527 208 751 440 205 212 334 455 401 754 20 91 23 130
23 319 0 188 -3 228 -23 318 -57 256 -166 484 -321 672 -24 30 -207 219 -406
420 -199 201 -1398 1413 -2665 2695 -1268 1282 -2468 2495 -2669 2697 l-364
367 334 328 c184 180 480 472 659 648 179 177 811 800 1405 1385 594 585 1231
1213 1415 1395 184 182 601 591 925 910 1352 1327 1472 1450 1572 1610 48 75
128 250 157 340 57 174 70 264 70 485 0 190 -2 214 -28 325 -77 329 -221 584
-453 806 -213 202 -464 333 -769 401 -83 18 -131 22 -299 22 -173 1 -215 -2
-309 -22 -264 -57 -496 -167 -698 -334 -35 -28 -207 -194 -383 -368 -600 -592
-2468 -2434 -3060 -3015 -1172 -1153 -1938 -1907 -2332 -2298 l-401 -399 -574
579 c-631 636 -2772 2800 -4422 4468 -581 589 -1090 1096 -1129 1128 -207 167
-429 274 -682 327 -74 16 -147 22 -280 25 -99 2 -191 2 -205 -1z"/>
</g>
</svg>
